<?xml version="1.0" encoding="UTF-8"?>
<svg xmlns="http://www.w3.org/2000/svg" xmlns:xlink="http://www.w3.org/1999/xlink" width="24pt" height="24pt" viewBox="0 0 24 24" version="1.1">
<g id="surface26342860">
<path style=" stroke:none;fill-rule:nonzero;fill:rgb(42.745098%,43.137255%,44.313725%);fill-opacity:1;" d="M 7.679688 1.441406 C 4.238281 1.441406 1.441406 4.238281 1.441406 7.679688 L 1.441406 16.320312 C 1.441406 19.761719 4.238281 22.558594 7.679688 22.558594 L 16.320312 22.558594 C 19.761719 22.558594 22.558594 19.761719 22.558594 16.320312 L 22.558594 7.679688 C 22.558594 4.238281 19.761719 1.441406 16.320312 1.441406 Z M 17.761719 5.28125 C 18.289062 5.28125 18.71875 5.710938 18.71875 6.238281 C 18.71875 6.769531 18.289062 7.199219 17.761719 7.199219 C 17.230469 7.199219 16.800781 6.769531 16.800781 6.238281 C 16.800781 5.710938 17.230469 5.28125 17.761719 5.28125 Z M 12 6.71875 C 14.914062 6.71875 17.28125 9.085938 17.28125 12 C 17.28125 14.914062 14.914062 17.28125 12 17.28125 C 9.085938 17.28125 6.71875 14.914062 6.71875 12 C 6.71875 9.085938 9.085938 6.71875 12 6.71875 Z M 12 7.679688 C 9.621094 7.679688 7.679688 9.621094 7.679688 12 C 7.679688 14.378906 9.621094 16.320312 12 16.320312 C 14.378906 16.320312 16.320312 14.378906 16.320312 12 C 16.320312 9.621094 14.378906 7.679688 12 7.679688 Z M 12 7.679688 "/>
</g>
</svg>
