<?xml version="1.0" encoding="UTF-8"?>
<svg xmlns="http://www.w3.org/2000/svg" xmlns:xlink="http://www.w3.org/1999/xlink" width="24pt" height="24pt" viewBox="0 0 24 24" version="1.1">
<g id="surface26359109">
<path style=" stroke:none;fill-rule:nonzero;fill:rgb(42.745098%,43.137255%,44.313725%);fill-opacity:1;" d="M 22.699219 17.335938 C 22.472656 18.511719 21.507812 19.40625 20.3125 19.574219 C 18.4375 19.855469 15.449219 20.175781 11.921875 20.175781 C 8.453125 20.175781 5.445312 19.855469 3.511719 19.574219 C 2.320312 19.40625 1.351562 18.511719 1.125 17.335938 C 0.898438 16.046875 0.71875 14.367188 0.71875 12.015625 C 0.71875 9.664062 0.933594 7.984375 1.164062 6.695312 C 1.390625 5.519531 2.355469 4.625 3.550781 4.457031 C 5.425781 4.175781 8.433594 3.824219 11.960938 3.824219 C 15.484375 3.824219 18.417969 4.175781 20.351562 4.457031 C 21.542969 4.625 22.511719 5.519531 22.738281 6.695312 C 22.964844 7.984375 23.261719 9.664062 23.261719 12.015625 C 23.207031 14.367188 22.929688 16.046875 22.699219 17.335938 Z M 22.699219 17.335938 "/>
<path style=" stroke:none;fill-rule:nonzero;fill:rgb(42.745098%,43.137255%,44.313725%);fill-opacity:1;" d="M 11.972656 3.898438 C 15.488281 3.898438 18.527344 4.234375 20.457031 4.511719 C 21.535156 4.664062 22.390625 5.46875 22.59375 6.507812 C 22.808594 7.742188 23.101562 9.652344 23.101562 11.992188 C 23.035156 14.640625 22.753906 16.574219 22.59375 17.488281 C 22.390625 18.53125 21.535156 19.335938 20.457031 19.488281 C 19.222656 19.671875 15.921875 20.101562 11.972656 20.101562 C 8.269531 20.101562 5.066406 19.714844 3.484375 19.488281 C 2.410156 19.335938 1.550781 18.53125 1.351562 17.492188 C 1.144531 16.328125 0.898438 14.429688 0.898438 12 C 0.898438 9.570312 1.144531 7.671875 1.347656 6.511719 C 1.550781 5.46875 2.410156 4.664062 3.488281 4.511719 C 4.722656 4.328125 8.019531 3.898438 11.972656 3.898438 M 11.972656 3.601562 C 8.445312 3.601562 5.320312 3.9375 3.441406 4.214844 C 2.25 4.382812 1.28125 5.28125 1.054688 6.457031 C 0.828125 7.742188 0.601562 9.648438 0.601562 12 C 0.601562 14.351562 0.828125 16.257812 1.054688 17.542969 C 1.28125 18.71875 2.25 19.617188 3.441406 19.785156 C 5.375 20.0625 8.503906 20.398438 11.972656 20.398438 C 15.496094 20.398438 18.625 20.0625 20.5 19.785156 C 21.695312 19.617188 22.660156 18.71875 22.886719 17.542969 C 23.117188 16.257812 23.34375 14.351562 23.398438 12 C 23.398438 9.648438 23.117188 7.742188 22.886719 6.457031 C 22.660156 5.28125 21.695312 4.382812 20.5 4.214844 C 18.566406 3.9375 15.496094 3.601562 11.972656 3.601562 Z M 11.972656 3.601562 "/>
<path style=" stroke:none;fill-rule:nonzero;fill:rgb(100%,100%,100%);fill-opacity:1;" d="M 9.601562 15.898438 L 9.601562 8.101562 L 16.800781 12 Z M 9.601562 15.898438 "/>
</g>
</svg>
